<svg xmlns="http://www.w3.org/2000/svg" width="272.814" height="329.288" viewBox="0 0 272.814 329.288"><defs><style>.a{fill:#fff;}.b{fill:#74c66d;}.c{fill:#211715;}.d{fill:#85807f;}</style></defs><path class="a" d="M231.634,209.813c-4.072-13.213-7.974-24.048-16.689-31.8a62.74,62.74,0,0,0-17.922-11.31c-4.623-1.956-14.179-5.7-20.87-7.707l-.56.386-8.577,4.814a69.78,69.78,0,0,1-61.975-.128l-8.629-4.5-.452-.268c-10.192,3.927-21.632,7.367-31.468,13.6-4.7,2.982-10.6,7.8-13.651,12.508a75.778,75.778,0,0,0-8.9,21.16c-.506,2.141-.936,4.017-1.33,5.829L9.737,231.119c5.792,15.924,11.768,46.191,18.787,58.042a29.65,29.65,0,0,0,18.424,13.461c7.54,1.75,17.581-2.183,21.991-9.788H203.971c4.41,7.605,14.451,11.538,21.991,9.788a29.65,29.65,0,0,0,18.424-13.461c7.019-11.851,12.995-42.118,18.787-58.042Z"/><path class="a" d="M182.7,79.711A7.344,7.344,0,0,1,188,77.768a6.815,6.815,0,0,1,6.12,3.4c2.079,3.607,1.991,10.252.6,14.364-.989,2.912-2.608,7.366-6.512,10.561a7.9,7.9,0,0,1-6.919,1.646,56.494,56.494,0,0,1-10.531,20.253,39.576,39.576,0,0,1-11.31,9.857c0,4.38,0,7.282,0,7.282a11.12,11.12,0,0,0,.476,3.943,9.579,9.579,0,0,0,2.876,4.186c2.923,2.355,5.926,3.48,9.626,4.871l3.168,1.25-8.577,4.814a69.78,69.78,0,0,1-61.975-.128l-8.629-4.5,3.651-1.437c3.7-1.391,6.7-2.516,9.626-4.871a9.579,9.579,0,0,0,2.876-4.186,11.142,11.142,0,0,0,.475-3.943s0-2.33,0-6.184a43.875,43.875,0,0,1-12.587-10.955A56.484,56.484,0,0,1,89.938,107.8a7.969,7.969,0,0,1-6.682-1.71c-3.9-3.2-5.523-7.649-6.512-10.561-1.395-4.112-1.483-10.757.6-14.364a6.815,6.815,0,0,1,6.12-3.4,7.344,7.344,0,0,1,5.308,1.943S81.154,34.3,135.732,34.3,182.7,79.711,182.7,79.711Z"/><path class="b" d="M201.665,325.533a1.875,1.875,0,0,1-.26.86,1.844,1.844,0,0,1-1.11.39c-10.25,0-123.15.12-128.02.1a1.281,1.281,0,0,1-1.13-.56,7.743,7.743,0,0,1-.13-1.81c-.15-12.34-.32-26.83-.5-41.52h3.1c3.33-32.05,5.11-63.81,6.31-78.85.19-8.34.59-24.98.68-38.26v-.84c4.16-1.64,8.34-3.11,12.37-4.61v1.31c-.05,11.66-.35,32.66-.35,42.24,9.33,0,62.82.69,85.73.22-.06-13.13.18-31.14.02-44.51,4.42,1.43,9.6,3.37,13.76,5.02.02.25.03.4.03.4.74,20.29.81,29.12,1.57,45.6.26,9.33,2.64,41.35,5.78,68.08h2.94c-.22,16.63-.41,33.23-.57,47.01"/><path class="c" d="M39.882,229.441c2.011-12.068,3.912-24.482,9.133-35.652a49.464,49.464,0,0,1,4.531-8.088,38.705,38.705,0,0,1,7.144-7.141,71.925,71.925,0,0,1,17.635-10.031c7.134-2.985,14.518-5.322,21.67-8.263a2.478,2.478,0,0,0,1.676-2.952,2.415,2.415,0,0,0-2.952-1.677c-13.227,5.439-27.507,9.047-39.126,17.745a52.954,52.954,0,0,0-7.961,7.114,39.6,39.6,0,0,0-5.5,8.3,81.93,81.93,0,0,0-6.961,19.078c-1.556,6.717-2.782,13.488-3.915,20.288a2.473,2.473,0,0,0,1.676,2.952,2.42,2.42,0,0,0,2.953-1.676Z"/><path class="c" d="M66.979,212.354c.312,13.279.514,26.561.711,39.842q.359,24.239.641,48.478.151,12.564.294,25.127c.035,3.087,4.835,3.1,4.8,0q-.263-23.136-.558-46.272-.3-23.344-.684-46.688-.176-10.244-.4-20.487c-.072-3.083-4.872-3.1-4.8,0Z"/><path class="c" d="M78.2,165.881c-.051,8.008-.192,16.014-.357,24.02-.122,5.964-.152,11.932-.593,17.88-1.088,14.644-2.02,29.3-3.193,43.937-.836,10.432-1.764,20.857-2.843,31.266a2.415,2.415,0,0,0,2.4,2.4,2.454,2.454,0,0,0,2.4-2.4c1.829-17.658,3.223-35.358,4.477-53.065.474-6.682.922-13.365,1.405-20.046.416-5.747.567-11.472.69-17.235.19-8.918.357-17.837.414-26.757.02-3.089-4.78-3.092-4.8,0Z"/><path class="c" d="M175.991,160.862c.134,14.444-.1,28.889-.033,43.334l2.4-2.4c-12.1.248-24.2.185-36.3.132q-18.811-.083-37.622-.273c-3.937-.033-7.874-.08-11.811-.081l2.4,2.4c0-14.08.29-28.158.345-42.237.013-3.089-4.787-3.093-4.8,0-.055,14.079-.341,28.157-.345,42.237a2.436,2.436,0,0,0,2.4,2.4c8.87,0,17.74.136,26.609.207,13.436.108,26.873.2,40.31.179,6.271-.01,12.544-.036,18.814-.164a2.438,2.438,0,0,0,2.4-2.4c-.065-14.445.167-28.89.033-43.334-.029-3.087-4.829-3.095-4.8,0Z"/><path class="c" d="M201.914,278.784c-1.958-16.711-3.493-33.478-4.724-50.258-.888-12.109-1.384-24.232-1.762-36.366-.28-9.017-.537-18.035-.866-27.051-.112-3.079-4.913-3.094-4.8,0,.557,15.273,1.027,30.549,1.576,45.822.461,12.81,1.608,25.614,2.756,38.378.885,9.837,1.87,19.666,3.02,29.475a2.473,2.473,0,0,0,2.4,2.4,2.415,2.415,0,0,0,2.4-2.4Z"/><path class="d" d="M189.719,41.908c-2.326-7.11-6.137-13.395-11.676-17.83L171.8,17.532c-7.083-9.338-18.6-14.4-35.043-15.122-21.4-.724-37.19,8.852-44.181,17.768L94.01,21.66C79.5,34.255,74.216,56.787,81.253,78.106a8.979,8.979,0,0,1,2.207-.338,7.344,7.344,0,0,1,5.308,1.943l7.506-6.3c5.633-6.277,15.576-15.738,22.553-19.4.818-.429,1.869.152,2.2,1.519a8.974,8.974,0,0,1,.215,3.273,1.7,1.7,0,0,0,2.429,1.83c4.981-2.767,13.856-8.336,20.149-10.988l9.332,1.147a30.135,30.135,0,0,1,8.594,5.405c5.665,4.874,11.1,11.561,13.5,17.613l7.449,5.9A7.344,7.344,0,0,1,188,77.768a8.814,8.814,0,0,1,2.479.423C193.365,66.789,193.444,53.291,189.719,41.908Z"/><path class="c" d="M103.83,166.139a72.642,72.642,0,0,0,51.439,5.055,69.16,69.16,0,0,0,12.958-4.927c2.762-1.385.334-5.527-2.422-4.144a67.6,67.6,0,0,1-47.453,4.452,62.589,62.589,0,0,1-12.1-4.58c-2.748-1.4-5.18,2.743-2.422,4.144Z"/><path class="c" d="M157.047,139.1v4.849a17.162,17.162,0,0,0,.562,5.763c1.245,3.516,3.842,5.9,7.046,7.674,3.817,2.11,8.131,3.454,12.189,5.054a2.416,2.416,0,0,0,2.952-1.676,2.457,2.457,0,0,0-1.676-2.952c-3.38-1.333-6.933-2.482-10.176-4.115-2.473-1.245-4.962-2.816-5.825-5.606a16.791,16.791,0,0,1-.272-4.876V139.1c0-3.089-4.8-3.094-4.8,0Z"/><path class="c" d="M110.64,140.19v4.388a10.013,10.013,0,0,1-.507,4.135c-1.132,2.574-3.553,4.008-6.034,5.2-3.131,1.508-6.507,2.622-9.743,3.9a2.473,2.473,0,0,0-1.676,2.952,2.417,2.417,0,0,0,2.953,1.676,117.436,117.436,0,0,0,11.738-4.806c3.095-1.626,5.748-3.789,7.151-7.061,1.379-3.215.918-6.959.918-10.383,0-3.089-4.8-3.094-4.8,0Z"/><path class="c" d="M94.273,21.875c6.282-7.945,15.865-12.919,25.578-15.345a61.825,61.825,0,0,1,19.88-1.538,53.9,53.9,0,0,1,16.848,3.82,32.55,32.55,0,0,1,13.148,9.931,2.481,2.481,0,0,0,3.284.861,2.416,2.416,0,0,0,.861-3.284A37.048,37.048,0,0,0,161.383,5.793,54.018,54.018,0,0,0,143.392.57C129.863-1.161,115.74,1,103.8,7.775A44.206,44.206,0,0,0,90.879,18.481a2.476,2.476,0,0,0,0,3.394,2.417,2.417,0,0,0,3.394,0Z"/><path class="c" d="M83.486,77.217c-4.722-14.673-3.94-31.384,4.361-44.659a41.377,41.377,0,0,1,7.86-9.2c2.328-2.039-1.078-5.422-3.394-3.394C79.973,30.768,74.655,47.8,75.955,63.863a64.824,64.824,0,0,0,2.9,14.631c.942,2.928,5.578,1.676,4.629-1.277Z"/><path class="c" d="M176.346,25.776c11.448,9.269,14.525,25.342,13.721,39.342a67.091,67.091,0,0,1-1.833,12.173c-.736,3,3.891,4.28,4.629,1.276,3.707-15.1,3.122-32.818-4.914-46.5a35.669,35.669,0,0,0-8.209-9.686,2.472,2.472,0,0,0-3.394,0,2.418,2.418,0,0,0,0,3.395Z"/><path class="c" d="M86.7,104.785A59.617,59.617,0,0,0,94.992,124.6c4.218,6.42,9.774,12.454,16.526,16.248a32.693,32.693,0,0,0,11.056,3.835,2.478,2.478,0,0,0,2.953-1.676,2.42,2.42,0,0,0-1.677-2.953c-13.871-2.122-24.172-14.263-29.393-26.6a57.025,57.025,0,0,1-3.129-9.942c-.665-3.015-5.293-1.739-4.628,1.276Z"/><path class="c" d="M179.88,103.509a54.741,54.741,0,0,1-10.23,22.057,41.293,41.293,0,0,1-8.744,8.542,38.4,38.4,0,0,1-10.05,4.821c-2.924.953-1.672,5.59,1.276,4.628a41.643,41.643,0,0,0,16.738-9.907,57.64,57.64,0,0,0,12.541-19,59.2,59.2,0,0,0,3.1-9.87c.664-3.01-3.963-4.3-4.629-1.276Z"/><path class="c" d="M127.009,119.1a19.143,19.143,0,0,0,9.22,2.135,15,15,0,0,0,9.3-2.745,2.413,2.413,0,0,0,0-3.394,2.461,2.461,0,0,0-3.394,0c.728-.568.163-.134-.024-.014s-.375.228-.57.33c-.1.052-.2.1-.3.152-.389.2.1-.043.1-.032a4.952,4.952,0,0,1-.787.286,13.9,13.9,0,0,1-2.2.5c.354-.053-.064,0-.208.018q-.324.031-.649.053c-.52.034-1.042.047-1.563.044-.467,0-.934-.019-1.4-.051-.214-.014-.428-.031-.642-.053-.025,0-.8-.111-.308-.033a15.873,15.873,0,0,1-2.055-.457c-.288-.086-.568-.189-.852-.286-.614-.21.353.183-.2-.078q-.528-.249-1.044-.521a2.453,2.453,0,0,0-3.284.861,2.426,2.426,0,0,0,.861,3.283Z"/><path class="c" d="M135.006,97.384a43.192,43.192,0,0,1,1.018,4.657l-.086-.638a2.767,2.767,0,0,1,.018.643l.086-.638a1.584,1.584,0,0,1-.071.289l.242-.573a1.2,1.2,0,0,1-.1.186l.375-.486a.98.98,0,0,1-.152.15l.486-.375a3.022,3.022,0,0,1-.369.195l.573-.242a2.647,2.647,0,0,1-.621.181l.638-.085a2.535,2.535,0,0,1-.584,0l.638.085c-.22-.03-.436-.084-.656-.113a1.812,1.812,0,0,0-.957-.043,1.774,1.774,0,0,0-.892.285,2.4,2.4,0,0,0-.861,3.283,2.3,2.3,0,0,0,1.434,1.1c.5.068.989.195,1.5.218a4.8,4.8,0,0,0,2.212-.526,3.193,3.193,0,0,0,1.769-2.1,5.285,5.285,0,0,0-.022-2.267c-.253-1.5-.6-2.987-.986-4.459a2.4,2.4,0,0,0-4.629,1.276Z"/><path class="c" d="M110.394,84.193c-.778,2.527-.271,8.341,4.517,8.836,6.328-.038,6.665-7.067,4.535-10.372C117.7,79.951,112.573,78.826,110.394,84.193Z"/><path class="c" d="M161.07,84.193c.778,2.527.271,8.341-4.517,8.836-6.328-.039-6.665-7.067-4.535-10.372C153.762,79.951,158.891,78.826,161.07,84.193Z"/><path class="c" d="M90.465,78.014a10.387,10.387,0,0,0-11.434-1.6,10.039,10.039,0,0,0-5.093,6.969,26.263,26.263,0,0,0,4.042,20.413c2.861,4.151,6.916,7.13,12.154,6.415a2.414,2.414,0,0,0,1.676-2.952,2.464,2.464,0,0,0-2.952-1.677c-3.59.491-6.405-3.365-7.879-6.084A22.648,22.648,0,0,1,78.2,90.6a19.707,19.707,0,0,1,.215-5.258A11.847,11.847,0,0,1,79,83.2a6.723,6.723,0,0,1,.5-.961c.036-.058.411-.6.246-.387a4.8,4.8,0,0,1,2.937-1.613,5.233,5.233,0,0,1,4.391,1.172c2.286,2.068,5.69-1.316,3.394-3.394Z"/><path class="c" d="M184.393,81.408a5.322,5.322,0,0,1,7.389.519c-.326-.4.133.224.185.309a6.723,6.723,0,0,1,.5.961,11.642,11.642,0,0,1,.549,1.968,19.539,19.539,0,0,1,.249,5.431,22.615,22.615,0,0,1-2.694,8.743c-1.471,2.766-4.313,6.739-7.962,6.24a2.483,2.483,0,0,0-2.952,1.677,2.416,2.416,0,0,0,1.676,2.952c8.538,1.166,13.5-7.155,15.753-14.187a24.781,24.781,0,0,0,.716-11.256,11.228,11.228,0,0,0-4.358-7.772A10.291,10.291,0,0,0,181,78.014c-2.295,2.077,1.107,5.463,3.394,3.394Z"/><path class="c" d="M151.94,52.863a37.837,37.837,0,0,1,12.131,8.842c3.549,3.69,6.923,7.958,8.862,12.742a2.476,2.476,0,0,0,2.952,1.676,2.416,2.416,0,0,0,1.676-2.952A47.386,47.386,0,0,0,167.743,58.6a41.655,41.655,0,0,0-13.38-9.884,2.479,2.479,0,0,0-3.284.861,2.419,2.419,0,0,0,.861,3.284Z"/><path class="c" d="M97.971,75.105c5.595-6.216,11.787-12.312,18.738-17.005.751-.507,1.516-1,2.3-1.449a3.857,3.857,0,0,0,.683-.419,7.632,7.632,0,0,1-.964-.175c-.084.073.112.739.079.539a19.089,19.089,0,0,1,.024,2.531,4.266,4.266,0,0,0,1.8,3.363c2.056,1.429,4.017.361,5.909-.726,1.8-1.031,3.579-2.085,5.37-3.126a120.424,120.424,0,0,1,13.119-6.921,2.414,2.414,0,0,0,.861-3.284,2.463,2.463,0,0,0-3.283-.861,110.557,110.557,0,0,0-11.769,6.14c-1.918,1.1-3.825,2.23-5.74,3.341-.716.415-1.433.829-2.154,1.235a3.466,3.466,0,0,0-.486.272c.018-.092.591-.176.816-.049l.283.26c.056.412.082.476.078.194a2.67,2.67,0,0,0,.057-.807c.1-2.313-.431-5.2-2.717-6.3-2.084-1-4.006.364-5.727,1.462a81.07,81.07,0,0,0-10.34,8.1A136.275,136.275,0,0,0,94.577,71.711c-2.062,2.29,1.322,5.7,3.394,3.394Z"/><path class="c" d="M68.625,325.223a3.946,3.946,0,0,0,1.289,3.24,4,4,0,0,0,2.445.82c.215.01.433,0,.648,0h2.474q4.509,0,9.018,0,14.831-.009,29.661-.023l36.147-.033,32.171-.03c5.877-.005,11.8.213,17.677-.013a3.756,3.756,0,0,0,3.912-3.65,2.412,2.412,0,0,0-2.4-2.4,2.461,2.461,0,0,0-2.4,2.4c.211-1.6,1.49-1.042.734-1.15a3.95,3.95,0,0,0-.533,0h-1.243l-3.459,0-10.387.009-30.309.027L119,324.454q-15.142.014-30.286.025c-5.313,0-10.627.014-15.94,0a2,2,0,0,0-.3,0c-.4.063-.032-.313.366.142l.617,1.059c-.1-.347,0,.313-.034-.462-.151-3.075-4.952-3.093-4.8,0Z"/><path class="c" d="M171.541,160.266a97.393,97.393,0,0,1,13.27,4.2q3.579,1.317,7.122,2.729,1.338.531,2.671,1.078.631.26,1.263.524c.472.2-.826-.359.28.119q.675.291,1.345.591a61.906,61.906,0,0,1,15.383,9.872,41.39,41.39,0,0,1,9.5,12.529c3,5.891,5,12.243,6.94,18.542.908,2.942,5.543,1.687,4.629-1.276-3.478-11.266-7.344-23.139-15.97-31.61a62.187,62.187,0,0,0-16.031-11.243c-4.326-2.128-8.876-3.85-13.381-5.557a109.031,109.031,0,0,0-15.75-5.128c-3.013-.639-4.3,3.987-1.276,4.629Z"/><path class="c" d="M66.867,291.623a19.224,19.224,0,0,1-16.672,9c-7.031-.191-14.33-5.12-18.35-10.76-3.481-4.884-5.269-10.546-7.107-16.226-2.277-7.038-4.2-14.187-6.157-21.32-2.007-7.321-3.944-14.7-6.53-21.84A2.463,2.463,0,0,0,9.1,228.805a2.421,2.421,0,0,0-1.677,2.952c5.087,14.049,8.05,28.789,12.636,43,1.964,6.087,4.044,12.627,7.866,17.842,4.9,6.685,12.767,12,21.165,12.764a23.954,23.954,0,0,0,21.923-11.318c1.58-2.662-2.568-5.08-4.145-2.422Z"/><path class="c" d="M201.131,212.354c-.312,13.279-.514,26.561-.711,39.842q-.357,24.239-.641,48.478-.151,12.564-.294,25.127c-.035,3.09,4.765,3.092,4.8,0q.263-23.136.558-46.272.3-23.344.684-46.688.176-10.244.4-20.487c.072-3.09-4.728-3.088-4.8,0Z"/><path class="c" d="M201.9,294.045a24.19,24.19,0,0,0,19.37,11.365c8.093.408,16.407-4.346,21.655-10.241,4.523-5.08,6.94-11.537,9.1-17.89,2.485-7.326,4.5-14.806,6.55-22.264,2.136-7.792,4.166-15.654,6.919-23.258a2.423,2.423,0,0,0-1.677-2.952,2.45,2.45,0,0,0-2.952,1.676c-4.813,13.3-7.72,27.224-11.913,40.716-1.771,5.7-3.523,11.369-6.464,16.464a26.857,26.857,0,0,1-17.758,12.773c-7,1.328-15.074-2.733-18.681-8.811-1.575-2.655-5.726-.243-4.145,2.422Z"/><path class="a" d="M8.473,209.758a46.735,46.735,0,0,0-3.365-5.987,14,14,0,0,1-2.7-8.915,16.232,16.232,0,0,1,1.518-5.449c3.322-4.924,6.194-9.227,9.637-13.389a35.925,35.925,0,0,1,2.653-2.769,8.082,8.082,0,0,1,5.655-2.2,6.7,6.7,0,0,1,4.761,2.763c4.369,1.489,5.328-1.25,7.315-2.741a7.611,7.611,0,0,1,7.468-.479,18.984,18.984,0,0,1,6.11,4.824,10.706,10.706,0,0,1,2.6,5.492,4.016,4.016,0,0,1-1.267,3.562,6.472,6.472,0,0,1-5.052,1.725c1.4,3.01,2.437,5.244,2.437,5.244a7.407,7.407,0,0,1,.506,3.142,5.078,5.078,0,0,1-.118,1.286,5.516,5.516,0,0,1-.565,1.257c-2.073,3.728-5.8,8.1-4.216,12.713,3.886,12.115,3.185,18.1-.789,21.417a28.3,28.3,0,0,1-10.806,5.45c-1.1.2-6.151.949-7.157.461-1.977-.959-3.911-1.453-5.348-3.265a13.694,13.694,0,0,1-2.33-5.177c-.563-2.219-2.309-7.718-3.637-11.3A82.4,82.4,0,0,0,8.473,209.758Z"/><path class="c" d="M28.955,173.1c-1.121-2.5-4.17-4.23-6.833-4.433A10.725,10.725,0,0,0,14,172.06C9.333,176.624,5.721,182.392,2.124,187.8c-3.114,4.679-2.582,11.347.158,16.021,1.306,2.229,2.719,4.327,3.874,6.653,1.1,2.22,2.138,4.48,3.019,6.8.982,2.581,1.852,5.208,2.68,7.841.726,2.307,1.219,4.739,2.131,6.977a8.838,8.838,0,0,0,5.494,5.549,23.818,23.818,0,0,0,7.5,1.084,23.432,23.432,0,0,0,16.08-6.032c2.892-2.647,3.859-6.578,3.761-10.379A40.079,40.079,0,0,0,45.34,213.2c-.449-1.7-1.316-3.523-1.462-5.271a7.7,7.7,0,0,1,.95-3.924c1.442-2.954,4.027-5.643,4.408-9a7.51,7.51,0,0,0-5.087-8.244c-2.964-.895-4.23,3.737-1.276,4.628,1.9.572,1.9,3.057,1.119,4.525-1.209,2.289-2.767,4.349-3.791,6.742a11.486,11.486,0,0,0-.517,8.29,59.619,59.619,0,0,1,2.033,8.146,21.081,21.081,0,0,1,.223,5.535,8.407,8.407,0,0,1-1.117,3.323c-.106.171-.219.337-.336.5.052-.073.3-.354.007-.015a9.7,9.7,0,0,1-.681.724,16.38,16.38,0,0,1-2.766,2.037,17.912,17.912,0,0,1-7.127,2.6,24.394,24.394,0,0,1-6.267-.1,16.339,16.339,0,0,1-2.483-.553,5.3,5.3,0,0,1-.957-.366,4.888,4.888,0,0,1-.521-.309c-.143-.1-.129-.086.043.034a3.014,3.014,0,0,1-.289-.3c-1.229-1.8-1.619-3.892-2.222-5.947-.669-2.276-1.4-4.534-2.171-6.778a91.751,91.751,0,0,0-5.57-13.031c-1.058-2.009-2.455-3.824-3.486-5.835a11.224,11.224,0,0,1-1.091-6.437,18.909,18.909,0,0,1,.8-3A24.71,24.71,0,0,1,8.1,187.507c1.782-2.625,3.584-5.243,5.525-7.754,1.563-2.02,3.436-4.769,5.842-5.84,1.858-.827,4.362-.574,5.341,1.607a2.417,2.417,0,0,0,3.284.861,2.457,2.457,0,0,0,.861-3.283Z"/><path class="c" d="M20.027,188.8l.348-.453c-.44.572.032-.041.119-.153q.45-.577.9-1.152.953-1.207,1.914-2.407c1.193-1.489,2.389-2.975,3.611-4.439.33-.4.651-.806,1.01-1.175a2.2,2.2,0,0,1,.646-.482q.394-.194.093-.061a4.481,4.481,0,0,1,.454-.138q.433-.084.052-.028c.154-.012.308-.017.462-.014a1.908,1.908,0,0,1,1.008.3,2.649,2.649,0,0,1,.99.886c-.22-.29.236.434.279.508.124.259.137.281.042.066.053.143.1.289.142.436s.075.292.1.44q-.041-.407,0,.021a7.449,7.449,0,0,1-.031.858,2.415,2.415,0,0,0,2.4,2.4,2.456,2.456,0,0,0,2.4-2.4c.627-5.693-5.884-10.307-10.922-7.355a11.3,11.3,0,0,0-2.9,2.8q-1.733,2.1-3.425,4.224c-1.3,1.618-2.581,3.243-3.839,4.89a2.415,2.415,0,0,0,.861,3.284,2.46,2.46,0,0,0,3.284-.861Z"/><path class="c" d="M29.23,192.157c1.562-1.936,3.273-3.788,4.986-5.591.753-.793,1.533-1.554,2.326-2.307.348-.331.012.016-.047.023.037,0,.518-.221-.068-.01a5.016,5.016,0,0,1,.562-.152c-.53.126.119.05.274.032.344-.039-.354-.093-.009-.013.14.033.28.057.419.094s.718.277.344.091c.225.112.433.257.656.369.31.157-.309-.077-.031-.024.056.011.147.152.187.19-.063-.059-.269-.416-.026-.033.072.113.144.225.21.342s.124.243.187.365c-.022-.041-.113-.35-.045-.093.06.229.138.456.2.686.017.065.034.37.018.066-.019-.355.016.1-.011.146-.107.191.086-.114.049-.208.038.1-.1.447-.138.558s-.074.228-.115.34c.116-.316-.027.062-.051.108-.131.264-.268.523-.417.778a16.2,16.2,0,0,1-.933,1.4c-.092.125-.186.248-.28.373-.328.436.228-.288-.053.071q-.393.5-.788,1-1.927,2.423-3.922,4.792a2.4,2.4,0,1,0,3.394,3.394q2.026-2.4,3.982-4.867c1.53-1.926,3.345-3.991,3.9-6.453a6.872,6.872,0,0,0-3.457-7.4,7.631,7.631,0,0,0-4.626-.766,6.588,6.588,0,0,0-3.534,2.132,81.294,81.294,0,0,0-6.54,7.17,2.461,2.461,0,0,0,0,3.394,2.426,2.426,0,0,0,3.394,0Z"/><path class="c" d="M32.388,175.638c1.13-.8,2.032-2.01,3.129-2.739a4.4,4.4,0,0,1,3.07-.621c2.17.219,4.279,1.842,5.931,3.475,1.568,1.55,3.471,3.717,3.243,6.1.012-.129-.1.242-.11.257a1.239,1.239,0,0,1-.312.48c-.137.155-.286.283-.435.423.39-.367-.055.036-.171.11a3.417,3.417,0,0,1-1.258.566,4.666,4.666,0,0,1-1.777.1,2.419,2.419,0,0,0-2.4,2.4,2.45,2.45,0,0,0,2.4,2.4,8.753,8.753,0,0,0,7.035-2.6c2.219-2.438,2.126-5.481.922-8.386a17.686,17.686,0,0,0-5.374-6.718,13.55,13.55,0,0,0-8.132-3.425,9.362,9.362,0,0,0-4.684,1.082c-1.394.749-2.249,2.077-3.5,2.958a2.465,2.465,0,0,0-.861,3.284,2.419,2.419,0,0,0,3.283.861Z"/><path class="a" d="M264.369,209.758a46.614,46.614,0,0,1,3.365-5.987,14.011,14.011,0,0,0,2.7-8.915,16.232,16.232,0,0,0-1.518-5.449c-3.322-4.924-6.194-9.227-9.637-13.389a35.925,35.925,0,0,0-2.653-2.769,8.082,8.082,0,0,0-5.655-2.2,6.709,6.709,0,0,0-4.762,2.763c-4.369,1.489-5.328-1.25-7.314-2.741a7.613,7.613,0,0,0-7.469-.479,18.991,18.991,0,0,0-6.109,4.824,10.706,10.706,0,0,0-2.6,5.492,4.016,4.016,0,0,0,1.266,3.562,6.475,6.475,0,0,0,5.052,1.725c-1.4,3.01-2.436,5.244-2.436,5.244a7.407,7.407,0,0,0-.506,3.142,5.124,5.124,0,0,0,.117,1.286,5.563,5.563,0,0,0,.566,1.257c2.073,3.728,5.8,8.1,4.215,12.713-3.885,12.115-3.184,18.1.79,21.417a28.3,28.3,0,0,0,10.806,5.45c1.1.2,6.151.949,7.157.461,1.977-.959,3.91-1.453,5.347-3.265a13.681,13.681,0,0,0,2.331-5.177c.562-2.219,2.309-7.718,3.637-11.3A82.4,82.4,0,0,1,264.369,209.758Z"/><path class="c" d="M248.032,175.52a3.554,3.554,0,0,1,1.893-1.753,2.946,2.946,0,0,1,2.334-.2c2.392.533,4.111,2.672,5.6,4.484,1.807,2.2,3.473,4.513,5.1,6.851.776,1.116,1.54,2.24,2.3,3.366a19.021,19.021,0,0,1,1.933,3.1,11.14,11.14,0,0,1,.756,5.815c-.381,2.506-1.7,4.375-3,6.469a71.136,71.136,0,0,0-6.007,12.614c-1.6,4.277-2.812,8.644-4.153,13A9.563,9.563,0,0,1,253.4,232.2a3.174,3.174,0,0,1-1.584.895,20.171,20.171,0,0,1-5.949.821,18.332,18.332,0,0,1-12.833-4.762,9.7,9.7,0,0,1-.681-.724c-.067-.077-.261-.361.007.015-.1-.136-.192-.274-.282-.415-.165-.258-.308-.527-.453-.8-.032-.061-.292-.689-.1-.2-.079-.2-.151-.408-.217-.616-.1-.325-.188-.656-.261-.989-.028-.128-.172-1.042-.129-.682a17.806,17.806,0,0,1-.071-3.037,36.706,36.706,0,0,1,1.4-7.659c.868-3.2,2.023-6.022,1.135-9.374-.756-2.858-2.484-5.322-3.98-7.824a4.924,4.924,0,0,1-1.037-3.257,2.414,2.414,0,0,1,1.608-2.214c2.949-.89,1.692-5.524-1.276-4.628a7.407,7.407,0,0,0-5.151,7.212c-.064,3.038,1.849,5.466,3.327,7.951a16.975,16.975,0,0,1,1.776,3.669,6.309,6.309,0,0,1-.116,4.077,57.787,57.787,0,0,0-2.14,8.839c-.595,4.065-.716,8.653,1.706,12.2a17.114,17.114,0,0,0,5.642,4.851,22.952,22.952,0,0,0,8.934,3.011,28.963,28.963,0,0,0,7.486-.2c2.193-.316,4.686-.892,6.344-2.47,2.068-1.968,2.765-4.9,3.509-7.543.72-2.557,1.546-5.086,2.407-7.6a76.892,76.892,0,0,1,6.209-13.918c1.449-2.476,3.09-4.671,3.771-7.53a16,16,0,0,0-.293-8.313c-.922-3.186-3.136-5.824-5-8.513a90.207,90.207,0,0,0-6.6-8.712c-2.387-2.674-5.047-4.809-8.751-5.095-2.987-.23-6.606,1.633-7.858,4.424a2.474,2.474,0,0,0,.861,3.283,2.418,2.418,0,0,0,3.284-.861Z"/><path class="c" d="M256.959,186.38c-2.222-2.911-4.517-5.771-6.841-8.6a17.812,17.812,0,0,0-2.206-2.5,7.09,7.09,0,0,0-8.036-.876,7.871,7.871,0,0,0-4,7.416,2.471,2.471,0,0,0,2.4,2.4,2.416,2.416,0,0,0,2.4-2.4,7.449,7.449,0,0,1-.031-.858q.036-.427,0-.021c.028-.148.063-.3.1-.44s.089-.293.142-.436q-.144.323.042-.066c.043-.074.5-.8.278-.508a2.651,2.651,0,0,1,.991-.886,1.906,1.906,0,0,1,1.008-.3c.154,0,.308,0,.461.014-.253-.037-.236-.028.053.028a4.481,4.481,0,0,1,.454.138q-.3-.132.093.061a2.06,2.06,0,0,1,.646.482c.359.369.68.78,1.009,1.175,1.222,1.464,2.419,2.95,3.612,4.439q.961,1.2,1.914,2.407.453.575.9,1.152c.087.112.558.725.119.153l.348.453a2.478,2.478,0,0,0,3.283.861,2.415,2.415,0,0,0,.861-3.284Z"/><path class="c" d="M247.006,188.763c-1.8-2.228-3.77-4.37-5.777-6.41a9.916,9.916,0,0,0-3.451-2.673,6.555,6.555,0,0,0-4.2.016,6.9,6.9,0,0,0-3.687,2.707,7.259,7.259,0,0,0-1.213,3.935c.02,2.714,1.967,5.062,3.556,7.089q2.2,2.8,4.5,5.521a2.411,2.411,0,0,0,3.394,0,2.463,2.463,0,0,0,0-3.394q-1.74-2.064-3.427-4.173-.426-.53-.848-1.064c-.11-.14-.221-.28-.331-.421-.068-.088-.14-.175-.206-.265.069.094.275.361.092.117a16.412,16.412,0,0,1-1.617-2.5c-.022-.043-.225-.513-.135-.28.079.2-.053-.17-.052-.168-.045-.15-.086-.3-.128-.45-.035-.128.012-.363-.02-.072-.046.409.134-.612-.006.041.057-.265.125-.522.2-.783.031-.107.19-.391-.01,0,.047-.091.09-.184.139-.275a4.411,4.411,0,0,1,.37-.592c-.36.472.258-.181.021.015s.044-.023.085-.047c.157-.09.31-.179.471-.262.244-.126-.035.01-.076.025.136-.05.273-.1.412-.137.1-.029.208-.055.314-.079.077-.017.515-.058.206-.042-.261.013.425.021.509.017-.079,0-.355-.122-.144-.016a4.769,4.769,0,0,0,.465.132c-.023-.008-.383-.168-.148-.038.289.16-.258-.288-.037-.039.154.174.354.324.522.483.4.378.787.765,1.171,1.157,1.974,2.015,3.918,4.126,5.689,6.322a2.407,2.407,0,0,0,3.4,0,2.471,2.471,0,0,0,0-3.394Z"/><path class="c" d="M242.876,171.493c-1.085-.764-1.878-1.908-3.007-2.662a8.911,8.911,0,0,0-4.161-1.347,11.944,11.944,0,0,0-7.919,2.444,20.236,20.236,0,0,0-5.95,6.255c-1.428,2.633-2.36,6.134-.515,8.8a8.673,8.673,0,0,0,7.82,3.6,2.462,2.462,0,0,0,2.4-2.4,2.418,2.418,0,0,0-2.4-2.4,4.381,4.381,0,0,1-2.939-.6c-.122-.075-.664-.545-.267-.17-.148-.139-.3-.27-.435-.423-.257-.288-.078-.032-.25-.361-.057-.11-.177-.427-.172-.376-.236-2.375,1.678-4.553,3.243-6.1,1.653-1.631,3.76-3.256,5.931-3.475a4.437,4.437,0,0,1,2.948.544c1.157.719,2.086,2,3.251,2.816a2.42,2.42,0,0,0,3.283-.861,2.451,2.451,0,0,0-.861-3.284Z"/></svg>