<!--?xml version="1.0" encoding="utf-8"?-->
<!-- Generator: Adobe Illustrator 18.1.1, SVG Export Plug-In . SVG Version: 6.00 Build 0)  -->

<svg version="1.1" id="_x32_" xmlns="http://www.w3.org/2000/svg" xmlns:xlink="http://www.w3.org/1999/xlink" x="0px" y="0px" viewBox="0 0 512 512" style="width: 512px; height: 512px; opacity: 1;" xml:space="preserve">
<style type="text/css">
	.st0{fill:#4B4B4B;}
</style>
<g>
	<rect x="66.87" y="429.481" class="st0" width="55.695" height="18.565" style="fill: rgb(75, 75, 75);"></rect>
	<rect x="389.435" y="429.481" class="st0" width="55.694" height="18.565" style="fill: rgb(75, 75, 75);"></rect>
	<path class="st0" d="M460.389,63.954H51.61C23.1,63.962,0.008,87.053,0,115.565v248.535c0.008,28.511,23.1,51.603,51.61,51.61
		h408.778c28.512-0.008,51.604-23.099,51.611-51.61V115.565C511.992,87.053,488.901,63.962,460.389,63.954z M382.504,392.259H51.61
		c-7.817-0.008-14.778-3.13-19.908-8.244c-5.115-5.137-8.244-12.099-8.252-19.916V115.565c0.008-7.817,3.137-14.786,8.252-19.916
		c5.13-5.115,12.092-8.237,19.908-8.244h330.894V392.259z M488.55,364.099c-0.008,7.817-3.13,14.778-8.244,19.916
		c-5.137,5.115-12.1,8.237-19.916,8.244h-62.251V87.405h62.251c7.817,0.008,14.779,3.13,19.916,8.244
		c5.115,5.129,8.237,12.099,8.244,19.916V364.099z" style="fill: rgb(75, 75, 75);"></path>
	<rect x="422.366" y="132.748" class="st0" width="39.084" height="39.084" style="fill: rgb(75, 75, 75);"></rect>
	<path class="st0" d="M441.916,217.435c-7.199,0-13.031,5.832-13.031,13.023c0,7.198,5.832,13.03,13.031,13.03
		c7.19,0,13.023-5.832,13.023-13.03C454.939,223.267,449.107,217.435,441.916,217.435z" style="fill: rgb(75, 75, 75);"></path>
	<path class="st0" d="M441.916,295.603c-7.199,0-13.031,5.832-13.031,13.023c0,7.198,5.832,13.03,13.031,13.03
		c7.19,0,13.023-5.832,13.023-13.03C454.939,301.435,449.107,295.603,441.916,295.603z" style="fill: rgb(75, 75, 75);"></path>
	<rect x="73.214" y="131.443" class="st0" width="267.588" height="218.084" style="fill: rgb(75, 75, 75);"></rect>
</g>
</svg>
